<svg xmlns="http://www.w3.org/2000/svg" width="45" height="45" viewBox="0 0 45 45">
  <g id="icons" transform="translate(0.004 0.004)">
    <g id="ui-gambling-website-lined-icnos-casinoshunter" transform="translate(-0.004 -0.004)">
      <g id="square-filled">
        <path id="cancel" d="M822.512,39.6,841.5,58.578,860.48,39.6a2.045,2.045,0,0,1,2.7-.17l.219.2a2.046,2.046,0,0,1,0,2.892L844.414,61.5,863.4,80.479a2.046,2.046,0,0,1,.17,2.7l-.2.219a2.044,2.044,0,0,1-2.891,0L841.5,64.414,822.512,83.4a2.045,2.045,0,0,1-2.7.17l-.219-.2a2.047,2.047,0,0,1,0-2.892L838.578,61.5,819.595,42.513a2.046,2.046,0,0,1-.17-2.7l.2-.219A2.044,2.044,0,0,1,822.512,39.6Zm-1.472,1.472L841.47,61.5,821.04,81.925l.027.027L841.5,61.522l20.43,20.429.026-.027L841.523,61.5l20.429-20.429-.026-.027L841.5,61.47l-20.43-20.429Z" transform="translate(-818.996 -38.996)" fill="#fff"/>
      </g>
    </g>
  </g>
</svg>
